HIERARCHY
ROOT hip
{
  OFFSET 0 0 0
  CHANNELS 6 Xposition Yposition Zposition Zrotation Yrotation Xrotation
  JOINT abdomen
  {
    OFFSET 0 20.6881 -0.73152
    CHANNELS 3 Zrotation Xrotation Yrotation
    JOINT chest
    {
      OFFSET 0 11.7043 -0.48768
      CHANNELS 3 Zrotation Xrotation Yrotation
      JOINT neck
      {
        OFFSET 0 22.1894 -2.19456
        CHANNELS 3 Zrotation Xrotation Yrotation
        JOINT head
        {
          OFFSET -0.24384 7.07133 1.2192
          CHANNELS 3 Zrotation Xrotation Yrotation
          JOINT leftEye
          {
            OFFSET 4.14528 8.04674 8.04672
            CHANNELS 3 Zrotation Xrotation Yrotation
            End Site
            {
              OFFSET 1 0 0
            }
          }
          JOINT rightEye
          {
            OFFSET -3.6576 8.04674 8.04672
            CHANNELS 3 Zrotation Xrotation Yrotation
            End Site
            {
              OFFSET 1 0 0
            }
          }
        }
      }
      JOINT rCollar
      {
        OFFSET -2.68224 19.2634 -4.8768
        CHANNELS 3 Zrotation Xrotation Yrotation
        JOINT rShldr
        {
          OFFSET -8.77824 -1.95073 1.46304
          CHANNELS 3 Zrotation Xrotation Yrotation
          JOINT rForeArm
          {
            OFFSET -28.1742 -1.7115 0.48768
            CHANNELS 3 Zrotation Xrotation Yrotation
            JOINT rHand
            {
              OFFSET -22.5879 0.773209 7.07136
              CHANNELS 3 Zrotation Xrotation Yrotation
              JOINT rThumb1
              {
                OFFSET -1.2192 -0.487915 3.41376
                CHANNELS 3 Zrotation Xrotation Yrotation
                JOINT rThumb2
                {
                  OFFSET -3.37035 -0.52449 3.41376
                  CHANNELS 3 Zrotation Xrotation Yrotation
                  End Site
                  {
                    OFFSET -1.78271 -1.18214 1.43049
                  }
                }
              }
              JOINT rIndex1
              {
                OFFSET -7.75947 0.938293 5.60832
                CHANNELS 3 Zrotation Xrotation Yrotation
                JOINT rIndex2
                {
                  OFFSET -2.54057 -0.884171 1.56538
                  CHANNELS 3 Zrotation Xrotation Yrotation
                  End Site
                  {
                    OFFSET -1.62519 -0.234802 1.16502
                  }
                }
              }
              JOINT rMid1
              {
                OFFSET -8.24714 1.18213 3.41376
                CHANNELS 3 Zrotation Xrotation Yrotation
                JOINT rMid2
                {
                  OFFSET -3.10165 -0.590103 1.0647
                  CHANNELS 3 Zrotation Xrotation Yrotation
                  End Site
                  {
                    OFFSET -2.48547 -0.328903 0.83742
                  }
                }
              }
              JOINT rRing1
              {
                OFFSET -8.82822 0.546677 1.51678
                CHANNELS 3 Zrotation Xrotation Yrotation
                JOINT rRing2
                {
                  OFFSET -2.60934 -0.819778 -0.0198488
                  CHANNELS 3 Zrotation Xrotation Yrotation
                  End Site
                  {
                    OFFSET -2.33842 -0.294052 0.168128
                  }
                }
              }
              JOINT rPinky1
              {
                OFFSET -8.27202 -0.0477905 -0.4584
                CHANNELS 3 Zrotation Xrotation Yrotation
                JOINT rPinky2
                {
                  OFFSET -1.82734 -0.647385 -0.700984
                  CHANNELS 3 Zrotation Xrotation Yrotation
                  End Site
                  {
                    OFFSET -1.69225 -0.51767 -0.607171
                  }
                }
              }
            }
          }
        }
      }
      JOINT lCollar
      {
        OFFSET 2.68224 19.2634 -4.8768
        CHANNELS 3 Zrotation Xrotation Yrotation
        JOINT lShldr
        {
          OFFSET 8.77824 -1.95073 1.46304
          CHANNELS 3 Zrotation Xrotation Yrotation
          JOINT lForeArm
          {
            OFFSET 28.1742 -1.7115 0.48768
            CHANNELS 3 Zrotation Xrotation Yrotation
            JOINT lHand
            {
              OFFSET 22.5879 0.773209 7.07136
              CHANNELS 3 Zrotation Xrotation Yrotation
              JOINT lThumb1
              {
                OFFSET 1.2192 -0.487915 3.41376
                CHANNELS 3 Zrotation Xrotation Yrotation
                JOINT lThumb2
                {
                  OFFSET 3.37035 -0.52449 3.41376
                  CHANNELS 3 Zrotation Xrotation Yrotation
                  End Site
                  {
                    OFFSET 1.78271 -1.18214 1.43049
                  }
                }
              }
              JOINT lIndex1
              {
                OFFSET 7.75947 0.938293 5.60832
                CHANNELS 3 Zrotation Xrotation Yrotation
                JOINT lIndex2
                {
                  OFFSET 2.54057 -0.884171 1.56538
                  CHANNELS 3 Zrotation Xrotation Yrotation
                  End Site
                  {
                    OFFSET 1.62519 -0.234802 1.16502
                  }
                }
              }
              JOINT lMid1
              {
                OFFSET 8.24714 1.18213 3.41376
                CHANNELS 3 Zrotation Xrotation Yrotation
                JOINT lMid2
                {
                  OFFSET 3.10165 -0.590103 1.0647
                  CHANNELS 3 Zrotation Xrotation Yrotation
                  End Site
                  {
                    OFFSET 2.48547 -0.328903 0.83742
                  }
                }
              }
              JOINT lRing1
              {
                OFFSET 8.82822 0.546677 1.51678
                CHANNELS 3 Zrotation Xrotation Yrotation
                JOINT lRing2
                {
                  OFFSET 2.60934 -0.819778 -0.0198488
                  CHANNELS 3 Zrotation Xrotation Yrotation
                  End Site
                  {
                    OFFSET 2.33842 -0.294052 0.168128
                  }
                }
              }
              JOINT lPinky1
              {
                OFFSET 8.27202 -0.0477905 -0.4584
                CHANNELS 3 Zrotation Xrotation Yrotation
                JOINT lPinky2
                {
                  OFFSET 1.82734 -0.647385 -0.700984
                  CHANNELS 3 Zrotation Xrotation Yrotation
                  End Site
                  {
                    OFFSET 1.69225 -0.51767 -0.607171
                  }
                }
              }
            }
          }
        }
      }
    }
  }
  JOINT rButtock
  {
    OFFSET -8.77824 4.35084 1.2192
    CHANNELS 3 Zrotation Xrotation Yrotation
    JOINT rThigh
    {
      OFFSET 0 -1.70687 -2.19456
      CHANNELS 3 Zrotation Xrotation Yrotation
      JOINT rShin
      {
        OFFSET 0 -36.8199 0.73152
        CHANNELS 3 Zrotation Xrotation Yrotation
        JOINT rFoot
        {
          OFFSET 0.73152 -45.1104 -5.12064
          CHANNELS 3 Zrotation Xrotation Yrotation
          End Site
          {
            OFFSET -1.1221 -3.69964 12.103
          }
        }
      }
    }
  }
  JOINT lButtock
  {
    OFFSET 8.77824 4.35084 1.2192
    CHANNELS 3 Zrotation Xrotation Yrotation
    JOINT lThigh
    {
      OFFSET 0 -1.70687 -2.19456
      CHANNELS 3 Zrotation Xrotation Yrotation
      JOINT lShin
      {
        OFFSET 0 -36.8199 0.73152
        CHANNELS 3 Zrotation Xrotation Yrotation
        JOINT lFoot
        {
          OFFSET -0.73152 -45.1104 -5.12064
          CHANNELS 3 Zrotation Xrotation Yrotation
          End Site
          {
            OFFSET 1.1221 -3.69964 12.103
          }
        }
      }
    }
  }
}
MOTION
Frames:	4
Frame Time:	0.00833333
0.0 0.0 0.0 0.0 0.0 0.0 0.0 0.0 0.0 0.0 0.0 0.0 0.0 0.0 0.0 0.0 0.0 0.0 0.0 0.0 0.0 0.0 0.0 0.0 0.0 0.0 0.0 0.0 0.0 0.0 0.0 0.0 0.0 0.0 0.0 0.0 0.0 0.0 0.0 0.0 0.0 0.0 0.0 0.0 0.0 0.0 0.0 0.0 0.0 0.0 0.0 0.0 0.0 0.0 0.0 0.0 0.0 0.0 0.0 0.0 0.0 0.0 0.0 0.0 0.0 0.0 0.0 0.0 0.0 0.0 0.0 0.0 0.0 0.0 0.0 0.0 0.0 0.0 0.0 0.0 0.0 0.0 0.0 0.0 0.0 0.0 0.0 0.0 0.0 0.0 0.0 0.0 0.0 0.0 0.0 0.0 0.0 0.0 0.0 0.0 0.0 0.0 0.0 0.0 0.0 0.0 0.0 0.0 0.0 0.0 0.0 0.0 0.0 0.0 0.0 0.0 0.0 0.0 0.0 0.0 0.0 0.0 0.0 0.0 0.0 0.0 0.0 0.0 0.0 0.0 0.0 0.0
159.327 57.953900000000004 -10.1309 -0.0 0.0 0.0 0.0 -0.0 0.0 -0.0 -0.0 0.0 9.579663 3.263211 60.169506 -7.606876 6.687135 -59.997951 -0.0 -0.0 0.0 -0.0 -0.0 0.0 -155.417258 -2.951435 161.718542 23.225838 -15.36645 15.781419 -178.925309 0.129429 178.869786 -6.13505 19.21112 0.374734 1.590029 -1.575931 -0.222909 9.905044 -15.229023 -8.965289 134.671754 -75.013072 81.180761 -157.376025 -19.661711 107.607416 7.904304 -24.807577 -3.013399 -173.814663 -25.852086 142.745328 0.000171 0.022623 0.007107 -6.965882 44.350878 8.761053 -26.564207 -38.860901 -25.60587 -23.86909 -42.054705 -23.189709 142.973735 39.431617 -147.390037 -19.095131 14.399782 -8.369563 -2.312756 6.133253 33.261722 -167.400373 -25.140375 -142.41326 -178.740285 -18.647484 -89.059934 176.180306 -12.600691 -98.061436 138.763944 4.487785 -115.031946 55.364047 61.809466 -45.550355 169.08961 -33.247392 -145.374931 175.529999 -42.628278 -140.442594 72.350995 72.974965 -90.218005 -10.658936 29.531932 12.354762 25.537984 -38.087442 24.598474 129.445633 -31.185607 127.556844 -0.0 -0.0 -0.0 -0.0 0.0 -0.0 7.227127 4.605395 81.232879 -150.32103 -25.645069 102.001997 -0.0 -0.0 -0.0 -0.0 0.0 -0.0 -7.227127 4.605395 -81.232879 150.32103 -25.645069 -102.001997
159.378 57.8092 -10.1596 -0.0 0.0 0.0 0.0 -0.0 0.0 -0.0 0.0 0.0 -7.839959 7.474454 -64.637578 10.095103 3.902534 64.805654 -0.0 -0.0 0.0 -0.0 -0.0 0.0 -155.417258 -2.951435 161.718542 23.225838 -15.36645 15.781419 -178.925862 0.131325 178.869852 -6.135688 19.213001 0.374879 -169.994474 -7.677138 89.939799 -7.057635 -49.159031 6.872789 -138.493513 4.896353 114.8648 -172.419086 -52.81456 117.934502 -4.104459 11.11647 2.538106 -162.02209 8.338249 142.08893 -145.119466 0.267775 -179.212461 20.503783 -0.530679 -9.119978 8.580128 27.211748 7.533938 -0.065454 0.658824 -1.160581 155.61387 -4.23638 -161.991154 148.94727 16.403195 -159.829549 -4.140077 7.158769 -0.72108 4.408649 13.993669 -0.059841 -88.928376 -50.831327 -37.599672 15.645962 -43.213956 30.245799 -45.282556 -63.865437 -4.306423 14.041015 27.283557 -16.705268 -0.047552 -0.138632 0.026316 18.318732 38.72465 -12.043028 145.119466 0.267753 179.212454 49.145378 87.692551 -72.70286 146.184456 15.332341 142.71147 160.282317 56.310761 146.493143 0.0 -0.0 -0.0 -0.0 0.0 -0.0 7.487779 5.94969 93.171256 -4.005625 52.292057 -79.698167 0.0 -0.0 -0.0 -0.0 0.0 -0.0 -7.487779 5.94969 -93.171256 4.005625 52.292057 79.698167
159.406 57.6761 -10.1987 -0.0 0.0 0.0 0.0 -0.0 0.0 -0.0 0.0 0.0 -6.906697 5.093511 -50.165498 8.325947 2.056425 50.323376 -0.0 -0.0 0.0 -0.0 -0.0 0.0 -157.323731 -17.489031 164.608479 -35.724897 62.889329 56.585782 177.913092 -72.000202 139.815328 169.656142 -19.29672 143.470368 71.831195 -48.263725 25.791675 -102.271669 37.345885 68.61254 -151.353117 -17.158427 121.133109 -2.17726 38.213238 2.69025 -10.975806 25.789868 7.640203 8.122164 -25.471074 -3.112343 0.004875 1.770451 0.556181 -163.211849 25.536965 168.249232 -156.454102 54.007494 -150.150965 -171.578602 67.920391 -140.613371 156.825857 -13.166531 -163.786397 152.71859 8.892783 -159.472283 -175.35971 -5.807141 -144.609635 -177.389152 4.195794 -145.329191 178.927535 -16.453687 -89.421826 127.640948 16.065072 -63.22252 173.600814 -52.692785 -119.892759 -0.608833 30.069029 -6.811394 -68.983989 -80.15399 -40.578188 38.03089 52.960915 -33.074804 -0.004871 1.772325 -0.55677 31.776785 72.618181 -34.286567 25.537984 -38.087442 24.598474 116.353814 -44.020828 114.722844 0.0 -0.0 -0.0 -0.0 0.0 -0.0 7.487779 5.94969 93.171256 -4.005625 52.292057 -79.698167 0.0 -0.0 -0.0 -0.0 0.0 -0.0 -7.487779 5.94969 -93.171256 4.005625 52.292057 79.698167
